<svg width="32" height="32" viewBox="0 0 32 32" fill="none" xmlns="http://www.w3.org/2000/svg">
<rect width="32" height="32" fill="#1E1E1E"/>
<g clip-path="url(#clip0_0_1)">
<rect width="1512" height="2708" transform="translate(-1411 -17)" fill="black"/>
<mask id="mask0_0_1" style="mask-type:alpha" maskUnits="userSpaceOnUse" x="-1411" y="-17" width="1512" height="4231">
<rect x="-1411" y="-17" width="1512" height="4231" fill="url(#paint0_linear_0_1)"/>
</mask>
<g mask="url(#mask0_0_1)">
<path d="M517.01 1389.61L-1828 1389.61M517.01 1384L-1828 1384M517.01 1378.4L-1828 1378.4M517.01 1372.79L-1828 1372.79M517.01 1367.19L-1828 1367.19M517.01 1361.59L-1828 1361.59M517.01 1355.98L-1828 1355.98M517.01 1350.38L-1828 1350.38M517.01 1344.77L-1828 1344.77M517.01 1339.17L-1828 1339.17M517.01 1333.57L-1828 1333.57M517.01 1327.96L-1828 1327.96M517.01 1322.36L-1828 1322.36M517.01 1316.75L-1828 1316.75M517.01 1311.15L-1828 1311.15M517.01 1305.55L-1828 1305.55M517.01 1299.94L-1828 1299.94M517.01 1294.34L-1828 1294.34M517.01 1288.73L-1828 1288.73M517.01 1283.13L-1828 1283.13M517.01 1277.53L-1828 1277.53M517.01 1271.92L-1828 1271.92M517.01 1266.32L-1828 1266.32M517.01 1260.71L-1828 1260.71M517.01 1255.11L-1828 1255.11M517.01 1249.51L-1828 1249.51M517.01 1243.9L-1828 1243.9M517.01 1238.3L-1828 1238.3M517.01 1232.69L-1828 1232.69M517.01 1227.09L-1828 1227.09M517.01 1221.49L-1828 1221.49M517.01 1215.88L-1828 1215.88M517.01 1210.28L-1828 1210.28M517.01 1204.67L-1828 1204.67M517.01 1199.07L-1828 1199.07M517.01 1193.47L-1828 1193.47M517.01 1187.86L-1828 1187.86M517.01 1182.26L-1828 1182.26M517.01 1176.65L-1828 1176.65M517.01 1171.05L-1828 1171.05M517.01 1165.45L-1828 1165.45M517.01 1159.84L-1828 1159.84M517.01 1154.24L-1828 1154.24M517.01 1148.63L-1828 1148.63M517.01 1143.03L-1828 1143.03M517.01 1137.43L-1828 1137.43M517.01 1131.82L-1828 1131.82M517.01 1126.22L-1828 1126.22M517.01 1120.61L-1828 1120.61M517.01 1115.01L-1828 1115.01M517.01 1109.41L-1828 1109.41M517.01 1103.8L-1828 1103.8M517.01 1098.2L-1828 1098.2M517.01 1092.59L-1828 1092.59M517.01 1086.99L-1828 1086.99M517.01 1081.39L-1828 1081.39M517.01 1075.78L-1828 1075.78M517.01 1070.18L-1828 1070.18M517.01 1064.57L-1828 1064.57M517.01 1058.97L-1828 1058.97M517.01 1053.37L-1828 1053.37M517.01 1047.76L-1828 1047.76M517.01 1042.16L-1828 1042.16M517.01 1036.55L-1828 1036.55M517.01 1030.95L-1828 1030.95M517.01 1025.35L-1828 1025.35M517.01 1019.74L-1828 1019.74M517.01 1014.14L-1828 1014.14M517.01 1008.53L-1828 1008.53M517.01 1002.93L-1828 1002.93M517.01 997.325L-1828 997.325M517.01 991.721L-1828 991.721M517.01 986.117L-1828 986.117M517.01 980.513L-1828 980.513M517.01 974.909L-1828 974.909M517.01 969.305L-1828 969.305M517.01 963.701L-1828 963.701M517.01 958.097L-1828 958.097M517.01 952.493L-1828 952.493M517.01 946.889L-1828 946.889M517.01 941.285L-1828 941.285M517.01 935.681L-1828 935.681M517.01 930.077L-1828 930.077M517.01 924.473L-1828 924.473M517.01 918.869L-1828 918.869M517.01 913.265L-1828 913.265M517.01 907.661L-1828 907.661M517.01 902.057L-1828 902.057M517.01 896.453L-1828 896.453M517.01 890.849L-1828 890.849M517.01 885.245L-1828 885.245M517.01 879.641L-1828 879.641M517.01 874.037L-1828 874.037M517.01 868.433L-1828 868.433M517.01 862.829L-1828 862.829M517.01 857.225L-1828 857.225M517.01 851.621L-1828 851.621M517.01 846.017L-1828 846.017M517.01 840.413L-1828 840.413M517.01 834.809L-1828 834.809M517.01 829.205L-1828 829.205M517.01 823.601L-1828 823.601M517.01 817.997L-1828 817.997M517.01 812.393L-1828 812.393M517.01 806.789L-1828 806.789M517.01 801.185L-1828 801.185M517.01 795.581L-1828 795.581M517.01 789.977L-1828 789.977M517.01 784.373L-1828 784.373M517.01 778.769L-1828 778.769M517.01 773.165L-1828 773.165M517.01 767.561L-1828 767.561M517.01 761.957L-1828 761.957M517.01 756.353L-1828 756.353M517.01 750.749L-1828 750.749M517.01 745.145L-1828 745.145M517.01 739.541L-1828 739.541M517.01 733.937L-1828 733.937M517.01 728.333L-1828 728.333M517.01 722.729L-1828 722.729M517.01 717.125L-1828 717.125M517.01 711.521L-1828 711.521M517.01 705.917L-1828 705.917M517.01 700.313L-1828 700.313M517.01 694.709L-1828 694.709M517.01 689.105L-1828 689.105M517.01 683.501L-1828 683.501M517.01 677.897L-1828 677.897M517.01 672.293L-1828 672.293M517.01 666.689L-1828 666.689M517.01 661.085L-1828 661.085M517.01 655.481L-1828 655.481M517.01 649.877L-1828 649.877M517.01 644.273L-1828 644.273M517.01 638.669L-1828 638.669M517.01 633.065L-1828 633.065M517.01 627.461L-1828 627.461M517.01 621.857L-1828 621.857M517.01 616.253L-1828 616.253M517.01 610.649L-1828 610.649M517.01 605.045L-1828 605.045M517.01 599.441L-1828 599.441M517.01 593.837L-1828 593.837M517.01 588.233L-1828 588.233M517.01 582.629L-1828 582.629M517.01 577.025L-1828 577.025M517.01 571.421L-1828 571.421M517.01 565.817L-1828 565.817M517.01 560.213L-1828 560.213M517.01 554.609L-1828 554.609M517.01 549.005L-1828 549.005M517.01 543.401L-1828 543.401M517.01 537.797L-1828 537.797M517.01 532.193L-1828 532.193M517.01 526.589L-1828 526.589M517.01 520.985L-1828 520.985M517.01 515.381L-1828 515.381M517.01 509.777L-1828 509.777M517.01 504.173L-1828 504.173M517.01 498.569L-1828 498.569M517.01 492.965L-1828 492.965M517.01 487.361L-1828 487.361M517.01 481.757L-1828 481.757M517.01 476.153L-1828 476.153M517.01 470.549L-1828 470.549M517.01 464.945L-1828 464.945M517.01 459.341L-1828 459.341M517.01 453.737L-1828 453.737M517.01 448.133L-1828 448.133M517.01 442.529L-1828 442.529M517.01 436.925L-1828 436.925M517.01 431.321L-1828 431.321M517.01 425.717L-1828 425.717M517.01 420.113L-1828 420.112M517.01 414.509L-1828 414.508M517.01 408.905L-1828 408.904M517.01 403.301L-1828 403.3M517.01 397.697L-1828 397.696M517.01 392.093L-1828 392.092M517.01 386.489L-1828 386.488M517.01 380.885L-1828 380.884M517.01 375.281L-1828 375.28M517.01 369.677L-1828 369.676M517.01 364.073L-1828 364.072M517.01 358.469L-1828 358.468M517.01 352.865L-1828 352.864M517.01 347.261L-1828 347.26M517.01 341.656L-1828 341.656M517.01 336.052L-1828 336.052M517.01 330.448L-1828 330.448M517.01 324.844L-1828 324.844M517.01 319.24L-1828 319.24M517.01 313.636L-1828 313.636M517.01 308.032L-1828 308.032M517.01 302.428L-1828 302.428M517.01 296.824L-1828 296.824M517.01 291.22L-1828 291.22M517.01 285.616L-1828 285.616M517.01 280.012L-1828 280.012M517.01 274.408L-1828 274.408M517.01 268.804L-1828 268.804M517.01 263.2L-1828 263.2M517.01 257.596L-1828 257.596M517.01 251.992L-1828 251.992M517.01 246.388L-1828 246.388M517.01 240.784L-1828 240.784M517.01 235.18L-1828 235.18M517.01 229.576L-1828 229.576M517.01 223.972L-1828 223.972M517.01 218.368L-1828 218.368M517.01 212.764L-1828 212.764M517.01 207.16L-1828 207.16M517.01 201.556L-1828 201.556M517.01 195.952L-1828 195.952M517.01 190.348L-1828 190.348M517.01 184.744L-1828 184.744M517.01 179.14L-1828 179.14M517.01 173.536L-1828 173.536M517.01 167.932L-1828 167.932M517.01 162.328L-1828 162.328M517.01 156.724L-1828 156.724M517.01 151.12L-1828 151.12M517.01 145.516L-1828 145.516M517.01 139.912L-1828 139.912M517.01 134.308L-1828 134.308M517.01 128.704L-1828 128.704M517.01 123.1L-1828 123.1M517.01 117.496L-1828 117.496M517.01 111.892L-1828 111.892M517.01 106.288L-1828 106.288M517.01 100.684L-1828 100.684M517.01 95.0802L-1828 95.0801M517.01 89.4762L-1828 89.4761M517.01 83.8722L-1828 83.8721M517.01 78.2682L-1828 78.2681M517.01 72.6642L-1828 72.6641M517.01 67.0602L-1828 67.0601M517.01 61.4562L-1828 61.4561M517.01 55.8522L-1828 55.8521M517.01 50.2482L-1828 50.2481M517.01 44.6442L-1828 44.6441M517.01 39.0402L-1828 39.0401M517.01 33.4362L-1828 33.4361M517.01 27.8321L-1828 27.8321M517.01 22.2281L-1828 22.228M517.01 16.6241L-1828 16.624M517.01 11.0201L-1828 11.02M517.01 5.41612L-1828 5.41603M517.01 -0.187888L-1828 -0.187981M517.01 -5.79189L-1828 -5.79199M517.01 -11.3959L-1828 -11.396M517.01 -16.9999L-1828 -17" stroke="#F9E92B" stroke-width="2"/>
</g>
<path d="M23.0313 6.33203H8.96875C7.51489 6.33203 6.33203 7.51489 6.33203 8.96875V23.0313C6.33203 24.4851 7.51489 25.668 8.96875 25.668H23.0313C24.4851 25.668 25.668 24.4851 25.668 23.0313V8.96875C25.668 7.51489 24.4851 6.33203 23.0313 6.33203ZM16 22.1523C12.608 22.1523 9.84766 19.392 9.84766 16C9.84766 12.608 12.608 9.84766 16 9.84766C19.392 9.84766 22.1523 12.608 22.1523 16C22.1523 19.392 19.392 22.1523 16 22.1523ZM22.1523 11.6055C21.1833 11.6055 20.3945 10.8167 20.3945 9.84766C20.3945 8.87857 21.1833 8.08985 22.1523 8.08985C23.1214 8.08985 23.9102 8.87857 23.9102 9.84766C23.9102 10.8167 23.1214 11.6055 22.1523 11.6055Z" fill="#F9E92B"/>
<path d="M16 11.6055C13.5771 11.6055 11.6055 13.5771 11.6055 16C11.6055 18.4229 13.5771 20.3945 16 20.3945C18.4229 20.3945 20.3945 18.4229 20.3945 16C20.3945 13.5771 18.4229 11.6055 16 11.6055Z" fill="#F9E92B"/>
<path d="M26.5469 1H5.45312C3.03018 1 1 3.03018 1 5.45312V26.5469C1 28.9698 3.03018 31 5.45312 31H26.5469C28.9698 31 31 28.9698 31 26.5469V5.45312C31 3.03018 28.9698 1 26.5469 1ZM27.4258 23.0312C27.4258 25.4542 25.4542 27.4258 23.0312 27.4258H8.96875C6.54581 27.4258 4.57422 25.4542 4.57422 23.0312V8.96875C4.57422 6.54581 6.54581 4.57422 8.96875 4.57422H23.0312C25.4542 4.57422 27.4258 6.54581 27.4258 8.96875V23.0312Z" fill="#F9E92B"/>
<path d="M23.0313 6.33203H8.96875C7.51489 6.33203 6.33203 7.51489 6.33203 8.96875V23.0313C6.33203 24.4851 7.51489 25.668 8.96875 25.668H23.0313C24.4851 25.668 25.668 24.4851 25.668 23.0313V8.96875C25.668 7.51489 24.4851 6.33203 23.0313 6.33203ZM16 22.1523C12.608 22.1523 9.84766 19.392 9.84766 16C9.84766 12.608 12.608 9.84766 16 9.84766C19.392 9.84766 22.1523 12.608 22.1523 16C22.1523 19.392 19.392 22.1523 16 22.1523ZM22.1523 11.6055C21.1833 11.6055 20.3945 10.8167 20.3945 9.84766C20.3945 8.87857 21.1833 8.08985 22.1523 8.08985C23.1214 8.08985 23.9102 8.87857 23.9102 9.84766C23.9102 10.8167 23.1214 11.6055 22.1523 11.6055Z" stroke="black" stroke-width="0.4"/>
<path d="M16 11.6055C13.5771 11.6055 11.6055 13.5771 11.6055 16C11.6055 18.4229 13.5771 20.3945 16 20.3945C18.4229 20.3945 20.3945 18.4229 20.3945 16C20.3945 13.5771 18.4229 11.6055 16 11.6055Z" stroke="black" stroke-width="0.4"/>
<path d="M26.5469 1H5.45312C3.03018 1 1 3.03018 1 5.45312V26.5469C1 28.9698 3.03018 31 5.45312 31H26.5469C28.9698 31 31 28.9698 31 26.5469V5.45312C31 3.03018 28.9698 1 26.5469 1ZM27.4258 23.0312C27.4258 25.4542 25.4542 27.4258 23.0312 27.4258H8.96875C6.54581 27.4258 4.57422 25.4542 4.57422 23.0312V8.96875C4.57422 6.54581 6.54581 4.57422 8.96875 4.57422H23.0312C25.4542 4.57422 27.4258 6.54581 27.4258 8.96875V23.0312Z" stroke="black" stroke-width="0.4"/>
</g>
<defs>
<linearGradient id="paint0_linear_0_1" x1="-245.942" y1="4214" x2="-510.768" y2="448.692" gradientUnits="userSpaceOnUse">
<stop offset="0.0558787" stop-color="#D9D9D9"/>
<stop offset="1" stop-color="#737373" stop-opacity="0"/>
</linearGradient>
<clipPath id="clip0_0_1">
<rect width="1512" height="2708" fill="white" transform="translate(-1411 -17)"/>
</clipPath>
</defs>
</svg>
