<svg width="53" height="53" viewBox="0 0 53 53" fill="none" xmlns="http://www.w3.org/2000/svg">
<path d="M41.1826 30.9129C35.1185 30.9129 30.1853 35.8607 30.1853 41.9416C30.1853 48.023 35.1185 52.9703 41.1826 52.9703C47.2467 52.9703 52.1799 48.023 52.1799 41.9416C52.1799 35.8607 47.2467 30.9129 41.1826 30.9129ZM41.1826 48.5588C37.5435 48.5588 34.5842 45.5911 34.5842 41.9416C34.5842 38.2926 37.5435 35.3244 41.1826 35.3244C44.8217 35.3244 47.781 38.2926 47.781 41.9416C47.781 45.5911 44.8217 48.5588 41.1826 48.5588Z" fill="#F9E92B"/>
<path d="M1.70373 19.1012C0.944035 20.4345 1.9069 22.0913 3.44144 22.0913H21.7345C23.2691 22.0913 24.232 20.4344 23.4722 19.1011L14.3251 3.04948C13.5578 1.70307 11.6169 1.70312 10.8497 3.04958L1.70373 19.1012ZM11.021 17.6798C9.48642 17.6798 8.52356 16.0229 9.2833 14.6896L10.8497 11.9407C11.6169 10.5943 13.5578 10.5943 14.325 11.9406L15.8916 14.6896C16.6514 16.0229 15.6886 17.6798 14.154 17.6798H11.021Z" fill="#F9E92B"/>
<path d="M30.5388 18.1409C30.5388 20.3501 32.3297 22.1409 34.5388 22.1409H47.7911C50.0002 22.1409 51.7911 20.35 51.7911 18.1409V4.72454C51.7911 2.5154 50.0002 0.724548 47.7911 0.724548H34.5388C32.3297 0.724548 30.5388 2.51541 30.5388 4.72455V18.1409ZM34.7893 9.00782C34.7893 6.79868 36.5801 5.00782 38.7893 5.00782H43.5406C45.7498 5.00782 47.5406 6.79868 47.5406 9.00782V13.8576C47.5406 16.0668 45.7498 17.8576 43.5406 17.8576H38.7893C36.5801 17.8576 34.7893 16.0668 34.7893 13.8576V9.00782Z" fill="#F9E92B"/>
<path d="M3.32829 51.2194C4.18917 52.0827 5.58753 52.0827 6.44841 51.2194L9.75401 47.9043C11.317 46.3369 13.8559 46.3369 15.4189 47.9043L18.7245 51.2194C19.5854 52.0827 20.9838 52.0827 21.8446 51.2194C22.702 50.3595 22.702 48.968 21.8446 48.1081L18.5141 44.7681C16.9573 43.2069 16.9573 40.6804 18.5141 39.1193L21.8446 35.7792C22.702 34.9194 22.702 33.5279 21.8445 32.6681C20.9837 31.805 19.5855 31.805 18.7248 32.6682L15.4189 35.9835C13.8559 37.551 11.317 37.551 9.75401 35.9835L6.44814 32.6682C5.58739 31.805 4.18925 31.805 3.32843 32.6681C2.47096 33.5279 2.4709 34.9194 3.32829 35.7792L6.65885 39.1193C8.21558 40.6804 8.21558 43.2069 6.65885 44.7681L3.32829 48.1081C2.47088 48.968 2.47088 50.3595 3.32829 51.2194Z" fill="#F9E92B"/>
</svg>
