<svg width="30" height="30" viewBox="0 0 30 30" fill="none" xmlns="http://www.w3.org/2000/svg">
<rect width="30" height="30" fill="#1E1E1E"/>
<g clip-path="url(#clip0_0_1)">
<rect width="1512" height="2708" transform="translate(-1462 -18)" fill="black"/>
<mask id="mask0_0_1" style="mask-type:alpha" maskUnits="userSpaceOnUse" x="-1462" y="-18" width="1512" height="4231">
<rect x="-1462" y="-18" width="1512" height="4231" fill="url(#paint0_linear_0_1)"/>
</mask>
<g mask="url(#mask0_0_1)">
<path d="M466.01 1388.61L-1879 1388.61M466.01 1383L-1879 1383M466.01 1377.4L-1879 1377.4M466.01 1371.79L-1879 1371.79M466.01 1366.19L-1879 1366.19M466.01 1360.59L-1879 1360.59M466.01 1354.98L-1879 1354.98M466.01 1349.38L-1879 1349.38M466.01 1343.77L-1879 1343.77M466.01 1338.17L-1879 1338.17M466.01 1332.57L-1879 1332.57M466.01 1326.96L-1879 1326.96M466.01 1321.36L-1879 1321.36M466.01 1315.75L-1879 1315.75M466.01 1310.15L-1879 1310.15M466.01 1304.55L-1879 1304.55M466.01 1298.94L-1879 1298.94M466.01 1293.34L-1879 1293.34M466.01 1287.73L-1879 1287.73M466.01 1282.13L-1879 1282.13M466.01 1276.53L-1879 1276.53M466.01 1270.92L-1879 1270.92M466.01 1265.32L-1879 1265.32M466.01 1259.71L-1879 1259.71M466.01 1254.11L-1879 1254.11M466.01 1248.51L-1879 1248.51M466.01 1242.9L-1879 1242.9M466.01 1237.3L-1879 1237.3M466.01 1231.69L-1879 1231.69M466.01 1226.09L-1879 1226.09M466.01 1220.49L-1879 1220.49M466.01 1214.88L-1879 1214.88M466.01 1209.28L-1879 1209.28M466.01 1203.67L-1879 1203.67M466.01 1198.07L-1879 1198.07M466.01 1192.47L-1879 1192.47M466.01 1186.86L-1879 1186.86M466.01 1181.26L-1879 1181.26M466.01 1175.65L-1879 1175.65M466.01 1170.05L-1879 1170.05M466.01 1164.45L-1879 1164.45M466.01 1158.84L-1879 1158.84M466.01 1153.24L-1879 1153.24M466.01 1147.63L-1879 1147.63M466.01 1142.03L-1879 1142.03M466.01 1136.43L-1879 1136.43M466.01 1130.82L-1879 1130.82M466.01 1125.22L-1879 1125.22M466.01 1119.61L-1879 1119.61M466.01 1114.01L-1879 1114.01M466.01 1108.41L-1879 1108.41M466.01 1102.8L-1879 1102.8M466.01 1097.2L-1879 1097.2M466.01 1091.59L-1879 1091.59M466.01 1085.99L-1879 1085.99M466.01 1080.39L-1879 1080.39M466.01 1074.78L-1879 1074.78M466.01 1069.18L-1879 1069.18M466.01 1063.57L-1879 1063.57M466.01 1057.97L-1879 1057.97M466.01 1052.37L-1879 1052.37M466.01 1046.76L-1879 1046.76M466.01 1041.16L-1879 1041.16M466.01 1035.55L-1879 1035.55M466.01 1029.95L-1879 1029.95M466.01 1024.35L-1879 1024.35M466.01 1018.74L-1879 1018.74M466.01 1013.14L-1879 1013.14M466.01 1007.53L-1879 1007.53M466.01 1001.93L-1879 1001.93M466.01 996.325L-1879 996.325M466.01 990.721L-1879 990.721M466.01 985.117L-1879 985.117M466.01 979.513L-1879 979.513M466.01 973.909L-1879 973.909M466.01 968.305L-1879 968.305M466.01 962.701L-1879 962.701M466.01 957.097L-1879 957.097M466.01 951.493L-1879 951.493M466.01 945.889L-1879 945.889M466.01 940.285L-1879 940.285M466.01 934.681L-1879 934.681M466.01 929.077L-1879 929.077M466.01 923.473L-1879 923.473M466.01 917.869L-1879 917.869M466.01 912.265L-1879 912.265M466.01 906.661L-1879 906.661M466.01 901.057L-1879 901.057M466.01 895.453L-1879 895.453M466.01 889.849L-1879 889.849M466.01 884.245L-1879 884.245M466.01 878.641L-1879 878.641M466.01 873.037L-1879 873.037M466.01 867.433L-1879 867.433M466.01 861.829L-1879 861.829M466.01 856.225L-1879 856.225M466.01 850.621L-1879 850.621M466.01 845.017L-1879 845.017M466.01 839.413L-1879 839.413M466.01 833.809L-1879 833.809M466.01 828.205L-1879 828.205M466.01 822.601L-1879 822.601M466.01 816.997L-1879 816.997M466.01 811.393L-1879 811.393M466.01 805.789L-1879 805.789M466.01 800.185L-1879 800.185M466.01 794.581L-1879 794.581M466.01 788.977L-1879 788.977M466.01 783.373L-1879 783.373M466.01 777.769L-1879 777.769M466.01 772.165L-1879 772.165M466.01 766.561L-1879 766.561M466.01 760.957L-1879 760.957M466.01 755.353L-1879 755.353M466.01 749.749L-1879 749.749M466.01 744.145L-1879 744.145M466.01 738.541L-1879 738.541M466.01 732.937L-1879 732.937M466.01 727.333L-1879 727.333M466.01 721.729L-1879 721.729M466.01 716.125L-1879 716.125M466.01 710.521L-1879 710.521M466.01 704.917L-1879 704.917M466.01 699.313L-1879 699.313M466.01 693.709L-1879 693.709M466.01 688.105L-1879 688.105M466.01 682.501L-1879 682.501M466.01 676.897L-1879 676.897M466.01 671.293L-1879 671.293M466.01 665.689L-1879 665.689M466.01 660.085L-1879 660.085M466.01 654.481L-1879 654.481M466.01 648.877L-1879 648.877M466.01 643.273L-1879 643.273M466.01 637.669L-1879 637.669M466.01 632.065L-1879 632.065M466.01 626.461L-1879 626.461M466.01 620.857L-1879 620.857M466.01 615.253L-1879 615.253M466.01 609.649L-1879 609.649M466.01 604.045L-1879 604.045M466.01 598.441L-1879 598.441M466.01 592.837L-1879 592.837M466.01 587.233L-1879 587.233M466.01 581.629L-1879 581.629M466.01 576.025L-1879 576.025M466.01 570.421L-1879 570.421M466.01 564.817L-1879 564.817M466.01 559.213L-1879 559.213M466.01 553.609L-1879 553.609M466.01 548.005L-1879 548.005M466.01 542.401L-1879 542.401M466.01 536.797L-1879 536.797M466.01 531.193L-1879 531.193M466.01 525.589L-1879 525.589M466.01 519.985L-1879 519.985M466.01 514.381L-1879 514.381M466.01 508.777L-1879 508.777M466.01 503.173L-1879 503.173M466.01 497.569L-1879 497.569M466.01 491.965L-1879 491.965M466.01 486.361L-1879 486.361M466.01 480.757L-1879 480.757M466.01 475.153L-1879 475.153M466.01 469.549L-1879 469.549M466.01 463.945L-1879 463.945M466.01 458.341L-1879 458.341M466.01 452.737L-1879 452.737M466.01 447.133L-1879 447.133M466.01 441.529L-1879 441.529M466.01 435.925L-1879 435.925M466.01 430.321L-1879 430.321M466.01 424.717L-1879 424.717M466.01 419.113L-1879 419.112M466.01 413.509L-1879 413.508M466.01 407.905L-1879 407.904M466.01 402.301L-1879 402.3M466.01 396.697L-1879 396.696M466.01 391.093L-1879 391.092M466.01 385.489L-1879 385.488M466.01 379.885L-1879 379.884M466.01 374.281L-1879 374.28M466.01 368.677L-1879 368.676M466.01 363.073L-1879 363.072M466.01 357.469L-1879 357.468M466.01 351.865L-1879 351.864M466.01 346.261L-1879 346.26M466.01 340.656L-1879 340.656M466.01 335.052L-1879 335.052M466.01 329.448L-1879 329.448M466.01 323.844L-1879 323.844M466.01 318.24L-1879 318.24M466.01 312.636L-1879 312.636M466.01 307.032L-1879 307.032M466.01 301.428L-1879 301.428M466.01 295.824L-1879 295.824M466.01 290.22L-1879 290.22M466.01 284.616L-1879 284.616M466.01 279.012L-1879 279.012M466.01 273.408L-1879 273.408M466.01 267.804L-1879 267.804M466.01 262.2L-1879 262.2M466.01 256.596L-1879 256.596M466.01 250.992L-1879 250.992M466.01 245.388L-1879 245.388M466.01 239.784L-1879 239.784M466.01 234.18L-1879 234.18M466.01 228.576L-1879 228.576M466.01 222.972L-1879 222.972M466.01 217.368L-1879 217.368M466.01 211.764L-1879 211.764M466.01 206.16L-1879 206.16M466.01 200.556L-1879 200.556M466.01 194.952L-1879 194.952M466.01 189.348L-1879 189.348M466.01 183.744L-1879 183.744M466.01 178.14L-1879 178.14M466.01 172.536L-1879 172.536M466.01 166.932L-1879 166.932M466.01 161.328L-1879 161.328M466.01 155.724L-1879 155.724M466.01 150.12L-1879 150.12M466.01 144.516L-1879 144.516M466.01 138.912L-1879 138.912M466.01 133.308L-1879 133.308M466.01 127.704L-1879 127.704M466.01 122.1L-1879 122.1M466.01 116.496L-1879 116.496M466.01 110.892L-1879 110.892M466.01 105.288L-1879 105.288M466.01 99.6842L-1879 99.6841M466.01 94.0802L-1879 94.0801M466.01 88.4762L-1879 88.4761M466.01 82.8722L-1879 82.8721M466.01 77.2682L-1879 77.2681M466.01 71.6642L-1879 71.6641M466.01 66.0602L-1879 66.0601M466.01 60.4562L-1879 60.4561M466.01 54.8522L-1879 54.8521M466.01 49.2482L-1879 49.2481M466.01 43.6442L-1879 43.6441M466.01 38.0402L-1879 38.0401M466.01 32.4362L-1879 32.4361M466.01 26.8321L-1879 26.8321M466.01 21.2281L-1879 21.228M466.01 15.6241L-1879 15.624M466.01 10.0201L-1879 10.02M466.01 4.41612L-1879 4.41603M466.01 -1.18789L-1879 -1.18798M466.01 -6.79189L-1879 -6.79199M466.01 -12.3959L-1879 -12.396M466.01 -17.9999L-1879 -18" stroke="#F9E92B" stroke-width="2"/>
</g>
<path d="M20.0878 23.9443L14.6746 16.2016V16.2011L14.6385 16.1495L7.61417 6.10196H9.89677L22.3704 23.9443H20.0878ZM18.9701 25.5539L19.0297 25.6406H19.135H25.2235H25.6036L25.3883 25.3273L17.197 13.4064L24.7088 4.67444L24.9931 4.34401H24.5572H22.7533H22.6615L22.6017 4.41358L16.1618 11.8996L11.0299 4.43075L10.9703 4.34401H10.865H4.77653H4.39645L4.61169 4.65727L12.5071 16.1482L4.62492 25.3102L4.34064 25.6406H4.77653H6.58044H6.67221L6.73206 25.571L13.5424 17.6545L18.9701 25.5539ZM3.24156 0.2H26.7584C28.4382 0.2 29.8 1.5618 29.8 3.24156V26.7584C29.8 28.4382 28.4382 29.8 26.7584 29.8H3.24156C1.5618 29.8 0.2 28.4382 0.2 26.7584V3.24156C0.2 1.5618 1.5618 0.2 3.24156 0.2Z" fill="#F9E92B" stroke="black" stroke-width="0.4"/>
</g>
<defs>
<linearGradient id="paint0_linear_0_1" x1="-296.942" y1="4213" x2="-561.768" y2="447.692" gradientUnits="userSpaceOnUse">
<stop offset="0.0558787" stop-color="#D9D9D9"/>
<stop offset="1" stop-color="#737373" stop-opacity="0"/>
</linearGradient>
<clipPath id="clip0_0_1">
<rect width="1512" height="2708" fill="white" transform="translate(-1462 -18)"/>
</clipPath>
</defs>
</svg>
